<?xml version="1.0" encoding="UTF-8"?>
<svg id="Layer_1" data-name="Layer 1" xmlns="http://www.w3.org/2000/svg" viewBox="0 0 300 339.95">
  <defs>
    <style>
      .cls-1 {
        fill: #221f20;
        stroke-width: 0px;
      }
    </style>
  </defs>
  <path class="cls-1" d="m259.87,179.19l-89.38,84.57-18.4,17.4c-4.76,4.5-12.51,4.5-17.3,0L3.57,157c-4.76-4.5-4.76-11.83,0-16.37l18.4-17.4c4.79-4.5,12.51-4.5,17.3,0l104.19,98.57,80.73-76.38c4.79-4.5,12.54-4.5,17.3,0l18.39,17.4c4.76,4.53,4.76,11.87,0,16.37Z"/>
  <path class="cls-1" d="m219.62,141.11l-18.4,17.4c-4.76,4.53-12.51,4.53-17.3,0l-63.94-60.49-40.48,38.3c-4.79,4.53-12.54,4.53-17.3,0l-18.4-17.4c-4.79-4.5-4.79-11.83,0-16.37l67.53-63.89c4.79-4.5,12.51-4.5,17.3,0l90.98,86.08c4.79,4.53,4.79,11.87,0,16.37Z"/>
  <path class="cls-1" d="m296.43,144.6l-16.6,15.7c-4.76,4.5-12.51,4.5-17.3,0l-18.4-17.4c-4.76-4.5-4.76-11.83,0-16.37l16.6-15.67c4.76-4.53,12.51-4.53,17.3,0l18.4,17.37c4.76,4.53,4.76,11.87,0,16.37Z"/>
  <g>
    <path class="cls-1" d="m62.21,289.51h9.42v28.29h17.22v6.9h-26.64v-35.19Z"/>
    <path class="cls-1" d="m90.68,311.54c0-8.61,6.09-13.69,15.45-13.69s15.45,5.08,15.45,13.69-6.09,13.58-15.45,13.58-15.45-5.03-15.45-13.58Zm22.16,0c0-4.71-2.47-7.49-6.72-7.49s-6.72,2.78-6.72,7.49,2.47,7.38,6.72,7.38,6.72-2.73,6.72-7.38Z"/>
    <path class="cls-1" d="m147.47,319.41h-.06c-.98,3.48-4.02,5.72-9.13,5.72-8.27,0-13.38-5.56-13.38-13.96s5.91-13.32,13.67-13.32c4.77,0,7.69,1.76,8.9,4.76h.06v-4.33h8.67v37h-8.73v-15.88Zm0-7.65v-1.34c0-3.8-2.81-6.36-7.06-6.36s-6.83,2.89-6.83,7.17c0,4.6,2.64,7.7,6.66,7.7,4.36,0,7.23-2.89,7.23-7.17Z"/>
    <path class="cls-1" d="m160.15,315.82h7.81c0,2.46,1.32,4.06,6.32,4.06,4.54,0,6.14-1.23,6.14-3.15,0-.96-.52-1.71-2.01-2.03-1.49-.32-3.79-.53-6.6-.75-4.08-.32-7.23-.91-8.96-2.03-1.61-1.07-2.7-2.99-2.7-5.19,0-5.72,6.32-8.88,14.18-8.88,9.3,0,13.55,3.32,13.55,9.47h-7.69c-.06-2.78-1.44-4.23-5.74-4.23-3.9,0-5.63,1.23-5.63,3.05,0,1.12.46,1.98,2.07,2.35,1.44.32,3.96.53,7.01.8,3.5.32,5.97.64,8.1,1.76,1.84.96,3.16,2.94,3.16,5.24,0,5.56-5.11,8.82-14.81,8.82s-14.18-3.96-14.18-9.3Z"/>
    <path class="cls-1" d="m193.11,287.64h8.73v11.66c0,1.02-.17,4.01-.34,5.99h.11c1.44-5.03,4.77-7.43,11.2-7.43,6.83,0,11.25,3.48,11.25,10.32v16.52h-8.73v-14.71c0-3.74-2.24-5.4-6.14-5.4-4.59,0-7.35,2.51-7.35,7.54v12.57h-8.73v-37.06Z"/>
  </g>
</svg>